# xmcd
#
# Track frame offsets:
#	150
#	25515
#	43332
#	59630
#	76077
#	98790
#	116817
#	134027
#	160507
#	183045
#	202987
#	231482
#	246580
#	265095
#
# Disc length: 3735 seconds
#
# Revision: 5
# Processed by: cddbd v1.5.2PL0 Copyright (c) Steve Scherf et al.
# Submitted via: audiograbber 1.83.01
#
DISCID=c00e950e
DTITLE=Various Artist - Power and Glory 3
DYEAR=1996
DGENRE=Pop
TTITLE0=Queen - Heaven For Everyone
TTITLE1=Sarah Brightman - Heaven Is Here
TTITLE2=José Carreras - Amore Perduto Adagio
TTITLE3=Vanessa Mae - Toccata Und Fuge In D-moll
TTITLE4=Roxette - Crash!boom!bang!
TTITLE5=George Michael - Mothers Pride
TTITLE6=U2 - Pride
TTITLE7=Kylie Minogue - Confide In Me
TTITLE8=Bonnie Tyler - Bridge Over Troubled Water
TTITLE9=Chris De Burgh - Carry Me
TTITLE10=Seal - Don't Cry
TTITLE11=Luciano Pavarotti - 'O Sole Mio
TTITLE12=Shakespears Sister - Hello
TTITLE13=Placido Domingo - Nessun Dorma
EXTD=
EXTT0=
EXTT1=
EXTT2=
EXTT3=
EXTT4=
EXTT5=
EXTT6=
EXTT7=
EXTT8=
EXTT9=
EXTT10=
EXTT11=
EXTT12=
EXTT13=
PLAYORDER=
